# xmcd
#
# Track frame offsets: 
#        150
#        23508
#        49199
#        69963
#        93260
#        108673
#        136644
#        169463
#        189670
#
# Disc length: 2804 seconds
#
# Revision: 0
# Processed by: cddbd v1.5.2PL0 Copyright (c) Steve Scherf et al.
# Submitted via: ExactAudioCopy v0.99pb3
#
DISCID=710af209
DTITLE=Rodgers Paul - Manchester 2011 (2)
DYEAR=2011
DGENRE=Rock
TTITLE0=Run with the Pack
TTITLE1=Bad Company
TTITLE2=The Stealer
TTITLE3=Seagull
TTITLE4=My Brother Jake
TTITLE5=Little Wing
TTITLE6=Shooting Star
TTITLE7=Rockn Roll Fantasy
TTITLE8=Cant get enough
EXTD=
EXTT0=
EXTT1=
EXTT2=
EXTT3=
EXTT4=
EXTT5=
EXTT6=
EXTT7=
EXTT8=
PLAYORDER=
